<svg xmlns="http://www.w3.org/2000/svg" width="26" height="24" fill="none" viewBox="0 0 26 24"><path fill="#414141" fill-rule="evenodd" d="M0 2.384C0 1.752.288 1.145.8.698S2.007 0 2.732 0h2.731c.497 0 .965.116 1.366.32C7.244.11 7.715 0 8.195 0h2.732c.992 0 1.863.462 2.34 1.155a2.9 2.9 0 0 1 1-.441l2.639-.616A3.1 3.1 0 0 1 17.97.037c.355.04.699.142 1.01.299.31.156.582.364.8.613.22.248.38.532.472.834l5.655 18.42c.093.303.116.618.07.928-.047.31-.163.61-.343.881s-.418.51-.703.7a2.9 2.9 0 0 1-.956.411l-2.638.616a3.1 3.1 0 0 1-1.064.061 3 3 0 0 1-1.01-.298 2.7 2.7 0 0 1-.801-.614 2.3 2.3 0 0 1-.471-.834L13.658 7.941v13.512c0 .633-.288 1.239-.8 1.686s-1.207.698-1.931.698H8.195c-.48 0-.95-.11-1.366-.32-.415.21-.886.32-1.366.32H2.732c-.725 0-1.42-.251-1.932-.698S0 22.086 0 21.453zm2.732 0h2.731v19.07H2.732zm8.195 19.07H8.195V2.383h2.732zm4.048-18.437 2.637-.617 5.657 18.42-2.638.617z" clip-rule="evenodd"/></svg>