<svg xmlns="http://www.w3.org/2000/svg" width="27" height="24" fill="none" viewBox="0 0 27 24"><path fill="#000" d="M26.986 11.977c0 .843-.703 1.504-1.5 1.504h-1.5l.033 7.51q-.002.19-.024.38v.759a1.874 1.874 0 0 1-1.875 1.875h-.75q-.077.001-.154-.005-.1.006-.197.005L19.495 24H18.37a1.875 1.875 0 0 1-1.875-1.875V18c0-.83-.67-1.5-1.5-1.5h-3c-.83 0-1.5.67-1.5 1.5v4.125A1.874 1.874 0 0 1 8.62 24H6q-.105-.001-.21-.01-.085.009-.17.01h-.75a1.875 1.875 0 0 1-1.875-1.875v-5.25c0-.042 0-.09.005-.131v-3.267H1.5c-.844 0-1.5-.657-1.5-1.505 0-.422.14-.797.469-1.125L12.483.375C12.81.047 13.186 0 13.514 0s.703.094.984.328L26.47 10.852c.375.328.563.703.516 1.125"/></svg>