<svg xmlns="http://www.w3.org/2000/svg" width="24" height="24" fill="none" viewBox="0 0 24 24"><path fill="#000" fill-rule="evenodd" d="M16.364 8.727a4.364 4.364 0 1 1-8.727 0 4.364 4.364 0 0 1 8.727 0m-2.182 0a2.182 2.182 0 1 1-4.363 0 2.182 2.182 0 0 1 4.363 0" clip-rule="evenodd"/><path fill="#000" fill-rule="evenodd" d="M12 0C5.373 0 0 5.373 0 12s5.373 12 12 12 12-5.373 12-12S18.627 0 12 0M2.182 12c0 2.28.778 4.379 2.081 6.046a9.8 9.8 0 0 1 7.808-3.864 9.8 9.8 0 0 1 7.737 3.772A9.816 9.816 0 0 0 15.142 2.7 9.818 9.818 0 0 0 2.182 12M12 21.818a9.78 9.78 0 0 1-6.188-2.195 7.62 7.62 0 0 1 6.259-3.26 7.63 7.63 0 0 1 6.206 3.186A9.78 9.78 0 0 1 12 21.82" clip-rule="evenodd"/></svg>