<svg width="24" height="24" viewBox="0 0 24 24" fill="none" xmlns="http://www.w3.org/2000/svg">
<path fill-rule="evenodd" clip-rule="evenodd" d="M16.364 8.72692C16.364 9.88423 15.9043 10.9941 15.0859 11.8125C14.2676 12.6308 13.1577 13.0906 12.0004 13.0906C10.843 13.0906 9.73314 12.6308 8.9148 11.8125C8.09646 10.9941 7.63672 9.88423 7.63672 8.72692C7.63672 7.56961 8.09646 6.4597 8.9148 5.64136C9.73314 4.82302 10.843 4.36328 12.0004 4.36328C13.1577 4.36328 14.2676 4.82302 15.0859 5.64136C15.9043 6.4597 16.364 7.56961 16.364 8.72692ZM14.1822 8.72692C14.1822 9.30557 13.9523 9.86053 13.5431 10.2697C13.134 10.6789 12.579 10.9087 12.0004 10.9087C11.4217 10.9087 10.8667 10.6789 10.4576 10.2697C10.0484 9.86053 9.81854 9.30557 9.81854 8.72692C9.81854 8.14826 10.0484 7.59331 10.4576 7.18414C10.8667 6.77497 11.4217 6.5451 12.0004 6.5451C12.579 6.5451 13.134 6.77497 13.5431 7.18414C13.9523 7.59331 14.1822 8.14826 14.1822 8.72692Z" fill="black"/>
<path fill-rule="evenodd" clip-rule="evenodd" d="M12 0C5.37273 0 0 5.37273 0 12C0 18.6273 5.37273 24 12 24C18.6273 24 24 18.6273 24 12C24 5.37273 18.6273 0 12 0ZM2.18182 12C2.18182 14.28 2.95964 16.3789 4.26327 18.0458C5.17903 16.8438 6.36017 15.8696 7.71452 15.1993C9.06886 14.5291 10.5598 14.1808 12.0709 14.1818C13.5626 14.1801 15.035 14.519 16.3758 15.1728C17.7166 15.8265 18.8904 16.7779 19.8076 17.9542C20.7529 16.7145 21.3893 15.2675 21.6642 13.733C21.9392 12.1985 21.8448 10.6206 21.3889 9.1298C20.933 7.63902 20.1286 6.27823 19.0423 5.16004C17.9561 4.04185 16.6192 3.19839 15.1422 2.69946C13.6653 2.20054 12.0908 2.06048 10.5489 2.29088C9.00712 2.52128 7.54232 3.11552 6.27575 4.02442C5.00918 4.93333 3.97725 6.13077 3.26534 7.51767C2.55343 8.90457 2.18202 10.4411 2.18182 12ZM12 21.8182C9.74608 21.8218 7.56016 21.0464 5.81236 19.6233C6.51579 18.6159 7.45221 17.7935 8.5419 17.226C9.63159 16.6584 10.8423 16.3626 12.0709 16.3636C13.2842 16.3626 14.4802 16.651 15.5596 17.2051C16.639 17.7591 17.5706 18.5627 18.2771 19.5491C16.5158 21.0185 14.2938 21.8218 12 21.8182Z" fill="black"/>
</svg>
