<svg xmlns="http://www.w3.org/2000/svg" width="25" height="28" fill="none" viewBox="0 0 25 28"><path fill="#414141" d="m23.296 3.093.067.215.74 2.58a1.01 1.01 0 0 1-.56 1.198l-.13.047L9.018 11.26h14.978a1.006 1.006 0 0 1 .996.873l.009.134v11.406a3.69 3.69 0 0 1-3.465 3.684l-.226.007H4.534A3.69 3.69 0 0 1 .85 23.9l-.007-.227V12.409l-.7-2.444a3.69 3.69 0 0 1 2.316-4.496l.215-.07L18.798.776a3.69 3.69 0 0 1 4.496 2.316m-.309 10.18H2.857v10.4c0 .81.575 1.487 1.339 1.643l.166.027.172.008h16.777a1.677 1.677 0 0 0 1.668-1.506l.008-.172zM5.235 6.76l-2.008.577a1.68 1.68 0 0 0-1.19 1.906l.041.168.462 1.612.396-.114zm6.383-1.83L7.97 5.977l-2.3 4.147L9.319 9.08zm6.386-1.83-3.648 1.047-2.3 4.147 3.646-1.044zm2.479-.313L18.44 6.463l3.448-.989-.462-1.61a1.68 1.68 0 0 0-.944-1.078"/></svg>