<svg xmlns="http://www.w3.org/2000/svg" width="25" height="27" fill="none" viewBox="0 0 25 27"><path fill="#000" d="m22.977 2.427.066.212.73 2.544a.99.99 0 0 1-.553 1.182l-.127.046-14.2 4.071h14.773a.99.99 0 0 1 .983.86l.009.133v11.25a3.64 3.64 0 0 1-3.418 3.634l-.222.007H4.472a3.64 3.64 0 0 1-3.634-3.418l-.006-.224V11.615L.14 9.205A3.64 3.64 0 0 1 2.426 4.77l.211-.069L18.541.141a3.64 3.64 0 0 1 4.435 2.285m-.305 10.04H2.817v10.258c0 .8.568 1.467 1.322 1.62l.164.027.17.008h16.546a1.654 1.654 0 0 0 1.646-1.486l.007-.169zM5.163 6.043l-1.98.57a1.655 1.655 0 0 0-1.173 1.88l.04.165.455 1.59.39-.113zM11.46 4.24 7.862 5.27 5.593 9.36l3.598-1.03zm6.298-1.807L14.16 3.465l-2.267 4.09 3.595-1.03zm2.445-.308L18.19 5.75l3.4-.976-.455-1.588a1.66 1.66 0 0 0-.932-1.063"/></svg>