<svg width="24" height="24" viewBox="0 0 24 24" fill="none" xmlns="http://www.w3.org/2000/svg">
<g clip-path="url(#clip0_523_1507)">
<path fill-rule="evenodd" clip-rule="evenodd" d="M8.85722 0.419299C11.2171 -0.221466 13.7165 -0.125967 16.0206 0.69301C18.3247 1.51199 20.3236 3.01535 21.7497 5.0018V2.6243C21.7497 2.32593 21.8682 2.03978 22.0792 1.8288C22.2902 1.61783 22.5764 1.4993 22.8747 1.4993C23.1731 1.4993 23.4592 1.61783 23.6702 1.8288C23.8812 2.03978 23.9997 2.32593 23.9997 2.6243V8.9993H17.6247C17.3264 8.9993 17.0402 8.88077 16.8292 8.66979C16.6182 8.45882 16.4997 8.17267 16.4997 7.8743C16.4997 7.57593 16.6182 7.28978 16.8292 7.0788C17.0402 6.86783 17.3264 6.7493 17.6247 6.7493H20.2152C19.0402 4.91103 17.2826 3.51997 15.2236 2.79865C13.1646 2.07732 10.9232 2.06743 8.85785 2.77054C6.79255 3.47365 5.02274 4.84915 3.83156 6.67697C2.64037 8.50479 2.09665 10.6793 2.28737 12.8527C2.47809 15.026 3.39224 17.0726 4.88356 18.665C6.37489 20.2575 8.35721 21.3037 10.5134 21.6363C12.6696 21.969 14.8751 21.5689 16.777 20.4999C18.6789 19.431 20.1673 17.7551 21.0042 15.7403C21.0585 15.6006 21.1402 15.4732 21.2445 15.3655C21.3487 15.2578 21.4735 15.1721 21.6113 15.1133C21.7492 15.0545 21.8974 15.0238 22.0473 15.0231C22.1972 15.0223 22.3457 15.0516 22.4841 15.109C22.6225 15.1665 22.748 15.2511 22.8533 15.3577C22.9586 15.4644 23.0416 15.591 23.0972 15.7302C23.1529 15.8693 23.1802 16.0182 23.1775 16.168C23.1749 16.3179 23.1423 16.4657 23.0817 16.6028C22.2999 18.4846 21.0518 20.1363 19.455 21.4023C17.8582 22.6682 15.9654 23.5067 13.9549 23.8386C11.9443 24.1706 9.8824 23.9851 7.96341 23.2997C6.04442 22.6142 4.3316 21.4513 2.98639 19.9207C1.64118 18.3901 0.707897 16.5422 0.274523 14.551C-0.158851 12.5599 -0.0780446 10.4912 0.509326 8.53999C1.0967 6.58874 2.17128 4.81921 3.63179 3.39819C5.0923 1.97717 6.89061 0.952979 8.85722 0.419299Z" fill="black"/>
</g>
<defs>
<clipPath id="clip0_523_1507">
<rect width="24" height="24" fill="white"/>
</clipPath>
</defs>
</svg>
