<svg xmlns="http://www.w3.org/2000/svg" width="19" height="19" fill="none" viewBox="0 0 19 19"><path stroke="#000" stroke-linecap="round" stroke-linejoin="round" stroke-width="1.5" d="M12.074 16.822H3.168a1.78 1.78 0 0 1-1.781-1.782v-.99a1.187 1.187 0 0 1 1.187-1.187h1.188m8.312 3.959a1.98 1.98 0 0 0 1.98-1.98V6.134m-1.98 10.688a1.98 1.98 0 0 1-1.979-1.98v-1.187a.79.79 0 0 0-.792-.792H3.762m0 0V4.947a2.77 2.77 0 0 1 2.77-2.771h9.402m-1.88 3.958h2.77a.79.79 0 0 0 .792-.792V3.957a1.781 1.781 0 0 0-3.563 0zM6.73 5.738h4.75M6.73 8.905h3.167"/></svg>