<svg width="16" height="16" viewBox="0 0 16 16" fill="none" xmlns="http://www.w3.org/2000/svg">
<path d="M11.2268 11.2268C11.7831 10.6705 12.2243 10.0101 12.5254 9.28325C12.8265 8.55643 12.9814 7.77742 12.9814 6.99071C12.9814 6.204 12.8265 5.42499 12.5254 4.69816C12.2243 3.97134 11.7831 3.31093 11.2268 2.75464C10.6705 2.19835 10.0101 1.75708 9.28325 1.45602C8.55643 1.15495 7.77742 1 6.99071 1C6.204 1 5.42499 1.15495 4.69816 1.45602C3.97134 1.75708 3.31093 2.19835 2.75464 2.75464C1.63116 3.87811 1 5.40187 1 6.99071C1 8.57954 1.63116 10.1033 2.75464 11.2268C3.87811 12.3503 5.40187 12.9814 6.99071 12.9814C8.57954 12.9814 10.1033 12.3503 11.2268 11.2268ZM11.2268 11.2268L15 15" stroke="black" stroke-width="1.5" stroke-linecap="round" stroke-linejoin="round"/>
</svg>
